# xmcd
#
# Track frame offsets: 
#        150
#        16955
#        29472
#        49198
#        58044
#        85700
#        104793
#        127419
#        152943
#        168079
#        172164
#        187773
#        205670
#        215195
#
# Disc length: 3053 seconds
#
# Revision: 0
# Processed by: cddbd v1.5.2PL0 Copyright (c) Steve Scherf et al.
# Submitted via: ExactAudioCopy v0.95b3
#
DISCID=ca0beb0e
DTITLE=Jethro Tull  - This Was - Mono Mix  FLAC
DYEAR=1900
DGENRE=
TTITLE0=My Sunday Feeling
TTITLE1=Some Day the Sun Won't Shine For You
TTITLE2=Beggar's Farm
TTITLE3=Move On Alone
TTITLE4=Serenade To A Cuckoo
TTITLE5=Dharma For One
TTITLE6=It's Breaking Me Up
TTITLE7=Cat's Squirrel
TTITLE8=A Song For Jeffrey
TTITLE9=Round
TTITLE10=Song For John Gee
TTITLE11=Love Story
TTITLE12=Living In The Past
TTITLE13=Witch's Promise
EXTD=
EXTT0=
EXTT1=
EXTT2=
EXTT3=
EXTT4=
EXTT5=
EXTT6=
EXTT7=
EXTT8=
EXTT9=
EXTT10=
EXTT11=
EXTT12=
EXTT13=
PLAYORDER=
